<mxfile host="Electron" modified="2024-01-18T11:11:51.843Z" agent="Mozilla/5.0 (Macintosh; Intel Mac OS X 10_15_7) AppleWebKit/537.36 (KHTML, like Gecko) draw.io/22.1.2 Chrome/114.0.5735.289 Electron/25.9.4 Safari/537.36" etag="VphQdbjBG37-aBvE4i1R" version="22.1.2" type="device">
  <diagram name="Page-1" id="fVKzoIfiD8yvwABQN3Qc">
    <mxGraphModel dx="984" dy="651" grid="1" gridSize="10" guides="1" tooltips="1" connect="1" arrows="1" fold="1" page="1" pageScale="1" pageWidth="827" pageHeight="1169" math="0" shadow="0">
      <root>
        <mxCell id="0" />
        <mxCell id="1" parent="0" />
        <mxCell id="MHmUOS_yZu0XGYur4rxJ-17" value="" style="rounded=0;whiteSpace=wrap;html=1;fillColor=#fff2cc;strokeColor=#d6b656;" vertex="1" parent="1">
          <mxGeometry x="80" y="80" width="560" height="440" as="geometry" />
        </mxCell>
        <mxCell id="MHmUOS_yZu0XGYur4rxJ-18" value="" style="endArrow=classic;html=1;rounded=0;" edge="1" parent="1">
          <mxGeometry width="50" height="50" relative="1" as="geometry">
            <mxPoint x="40" y="80" as="sourcePoint" />
            <mxPoint x="40" y="520" as="targetPoint" />
          </mxGeometry>
        </mxCell>
        <mxCell id="MHmUOS_yZu0XGYur4rxJ-19" value="Platform Capability" style="text;html=1;strokeColor=none;fillColor=none;align=center;verticalAlign=middle;whiteSpace=wrap;rounded=0;rotation=-90;fontSize=20;" vertex="1" parent="1">
          <mxGeometry x="-85" y="290" width="220" height="30" as="geometry" />
        </mxCell>
        <mxCell id="MHmUOS_yZu0XGYur4rxJ-20" value="" style="endArrow=classic;html=1;rounded=0;" edge="1" parent="1">
          <mxGeometry width="50" height="50" relative="1" as="geometry">
            <mxPoint x="80" y="40" as="sourcePoint" />
            <mxPoint x="640" y="40" as="targetPoint" />
          </mxGeometry>
        </mxCell>
        <mxCell id="MHmUOS_yZu0XGYur4rxJ-21" value="&lt;font style=&quot;font-size: 20px;&quot;&gt;Service Offering&lt;/font&gt;" style="text;html=1;strokeColor=none;fillColor=none;align=center;verticalAlign=middle;whiteSpace=wrap;rounded=0;" vertex="1" parent="1">
          <mxGeometry x="280" y="10" width="160" height="30" as="geometry" />
        </mxCell>
        <mxCell id="MHmUOS_yZu0XGYur4rxJ-22" value="Base HW / SW" style="rounded=1;whiteSpace=wrap;html=1;fillColor=#dae8fc;strokeColor=#6c8ebf;" vertex="1" parent="1">
          <mxGeometry x="90" y="90" width="100" height="30" as="geometry" />
        </mxCell>
        <mxCell id="MHmUOS_yZu0XGYur4rxJ-23" value="" style="endArrow=classic;html=1;rounded=0;exitX=0.5;exitY=1;exitDx=0;exitDy=0;" edge="1" parent="1" source="MHmUOS_yZu0XGYur4rxJ-22">
          <mxGeometry width="50" height="50" relative="1" as="geometry">
            <mxPoint x="390" y="360" as="sourcePoint" />
            <mxPoint x="140" y="180" as="targetPoint" />
          </mxGeometry>
        </mxCell>
        <mxCell id="MHmUOS_yZu0XGYur4rxJ-24" value="Addition 1" style="rounded=1;whiteSpace=wrap;html=1;fillColor=#dae8fc;strokeColor=#6c8ebf;" vertex="1" parent="1">
          <mxGeometry x="90" y="180" width="100" height="30" as="geometry" />
        </mxCell>
        <mxCell id="MHmUOS_yZu0XGYur4rxJ-25" value="" style="endArrow=classic;html=1;rounded=0;exitX=0.5;exitY=1;exitDx=0;exitDy=0;" edge="1" parent="1" source="MHmUOS_yZu0XGYur4rxJ-24">
          <mxGeometry width="50" height="50" relative="1" as="geometry">
            <mxPoint x="390" y="450" as="sourcePoint" />
            <mxPoint x="140" y="270" as="targetPoint" />
          </mxGeometry>
        </mxCell>
        <mxCell id="MHmUOS_yZu0XGYur4rxJ-26" value="Addition 2" style="rounded=1;whiteSpace=wrap;html=1;fillColor=#dae8fc;strokeColor=#6c8ebf;" vertex="1" parent="1">
          <mxGeometry x="90" y="270" width="100" height="30" as="geometry" />
        </mxCell>
        <mxCell id="MHmUOS_yZu0XGYur4rxJ-27" value="" style="endArrow=classic;html=1;rounded=0;exitX=0.5;exitY=1;exitDx=0;exitDy=0;" edge="1" parent="1" source="MHmUOS_yZu0XGYur4rxJ-26">
          <mxGeometry width="50" height="50" relative="1" as="geometry">
            <mxPoint x="390" y="540" as="sourcePoint" />
            <mxPoint x="140" y="360" as="targetPoint" />
          </mxGeometry>
        </mxCell>
        <mxCell id="MHmUOS_yZu0XGYur4rxJ-28" value="Addition 3" style="rounded=1;whiteSpace=wrap;html=1;fillColor=#dae8fc;strokeColor=#6c8ebf;" vertex="1" parent="1">
          <mxGeometry x="90" y="360" width="100" height="30" as="geometry" />
        </mxCell>
        <mxCell id="MHmUOS_yZu0XGYur4rxJ-29" value="" style="endArrow=classic;html=1;rounded=0;exitX=0.5;exitY=1;exitDx=0;exitDy=0;" edge="1" parent="1" source="MHmUOS_yZu0XGYur4rxJ-28">
          <mxGeometry width="50" height="50" relative="1" as="geometry">
            <mxPoint x="390" y="630" as="sourcePoint" />
            <mxPoint x="140" y="450" as="targetPoint" />
          </mxGeometry>
        </mxCell>
        <mxCell id="MHmUOS_yZu0XGYur4rxJ-30" value="" style="endArrow=none;dashed=1;html=1;dashPattern=1 3;strokeWidth=2;rounded=0;" edge="1" parent="1">
          <mxGeometry width="50" height="50" relative="1" as="geometry">
            <mxPoint x="140" y="490" as="sourcePoint" />
            <mxPoint x="140" y="450" as="targetPoint" />
          </mxGeometry>
        </mxCell>
        <mxCell id="MHmUOS_yZu0XGYur4rxJ-31" value="Basic Service" style="ellipse;whiteSpace=wrap;html=1;fillColor=#d5e8d4;strokeColor=#82b366;" vertex="1" parent="1">
          <mxGeometry x="220" y="90" width="80" height="50" as="geometry" />
        </mxCell>
        <mxCell id="MHmUOS_yZu0XGYur4rxJ-32" value="Service Addition A" style="ellipse;whiteSpace=wrap;html=1;fillColor=#d5e8d4;strokeColor=#82b366;" vertex="1" parent="1">
          <mxGeometry x="320" y="90" width="80" height="50" as="geometry" />
        </mxCell>
        <mxCell id="MHmUOS_yZu0XGYur4rxJ-33" value="Service Addition B" style="ellipse;whiteSpace=wrap;html=1;fillColor=#d5e8d4;strokeColor=#82b366;" vertex="1" parent="1">
          <mxGeometry x="414" y="90" width="80" height="50" as="geometry" />
        </mxCell>
        <mxCell id="MHmUOS_yZu0XGYur4rxJ-34" value="Service Addition C" style="ellipse;whiteSpace=wrap;html=1;fillColor=#d5e8d4;strokeColor=#82b366;" vertex="1" parent="1">
          <mxGeometry x="510" y="90" width="80" height="50" as="geometry" />
        </mxCell>
        <mxCell id="MHmUOS_yZu0XGYur4rxJ-35" value="Mid-tier 1 Service A" style="ellipse;whiteSpace=wrap;html=1;fillColor=#b0e3e6;strokeColor=#0e8088;" vertex="1" parent="1">
          <mxGeometry x="220" y="170" width="80" height="50" as="geometry" />
        </mxCell>
        <mxCell id="MHmUOS_yZu0XGYur4rxJ-36" value="Mid-tier 1 Service B" style="ellipse;whiteSpace=wrap;html=1;fillColor=#b0e3e6;strokeColor=#0e8088;" vertex="1" parent="1">
          <mxGeometry x="320" y="170" width="80" height="50" as="geometry" />
        </mxCell>
        <mxCell id="MHmUOS_yZu0XGYur4rxJ-37" value="Mid-tier 1 Service C" style="ellipse;whiteSpace=wrap;html=1;fillColor=#b0e3e6;strokeColor=#0e8088;" vertex="1" parent="1">
          <mxGeometry x="414" y="170" width="80" height="50" as="geometry" />
        </mxCell>
        <mxCell id="MHmUOS_yZu0XGYur4rxJ-38" value="Mid-tier 1 Service D" style="ellipse;whiteSpace=wrap;html=1;fillColor=#b0e3e6;strokeColor=#0e8088;" vertex="1" parent="1">
          <mxGeometry x="510" y="170" width="80" height="50" as="geometry" />
        </mxCell>
        <mxCell id="MHmUOS_yZu0XGYur4rxJ-39" value="High-tier 2 Service A" style="ellipse;whiteSpace=wrap;html=1;fillColor=#fad7ac;strokeColor=#b46504;" vertex="1" parent="1">
          <mxGeometry x="220" y="260" width="80" height="50" as="geometry" />
        </mxCell>
        <mxCell id="MHmUOS_yZu0XGYur4rxJ-40" value="High-tier 2 Service B" style="ellipse;whiteSpace=wrap;html=1;fillColor=#fad7ac;strokeColor=#b46504;" vertex="1" parent="1">
          <mxGeometry x="320" y="260" width="80" height="50" as="geometry" />
        </mxCell>
        <mxCell id="MHmUOS_yZu0XGYur4rxJ-41" value="High-tier 2 Service C" style="ellipse;whiteSpace=wrap;html=1;fillColor=#fad7ac;strokeColor=#b46504;" vertex="1" parent="1">
          <mxGeometry x="414" y="260" width="80" height="50" as="geometry" />
        </mxCell>
        <mxCell id="MHmUOS_yZu0XGYur4rxJ-42" value="High-tier 2 Service D" style="ellipse;whiteSpace=wrap;html=1;fillColor=#fad7ac;strokeColor=#b46504;" vertex="1" parent="1">
          <mxGeometry x="510" y="260" width="80" height="50" as="geometry" />
        </mxCell>
        <mxCell id="MHmUOS_yZu0XGYur4rxJ-43" value="Advance-tier 3 Service A" style="ellipse;whiteSpace=wrap;html=1;fillColor=#fad9d5;strokeColor=#ae4132;" vertex="1" parent="1">
          <mxGeometry x="220" y="350" width="80" height="50" as="geometry" />
        </mxCell>
        <mxCell id="MHmUOS_yZu0XGYur4rxJ-44" value="Advance-tier 3 Service B" style="ellipse;whiteSpace=wrap;html=1;fillColor=#fad9d5;strokeColor=#ae4132;" vertex="1" parent="1">
          <mxGeometry x="320" y="350" width="80" height="50" as="geometry" />
        </mxCell>
        <mxCell id="MHmUOS_yZu0XGYur4rxJ-45" value="Advance-tier 3 Service C" style="ellipse;whiteSpace=wrap;html=1;fillColor=#fad9d5;strokeColor=#ae4132;" vertex="1" parent="1">
          <mxGeometry x="414" y="350" width="80" height="50" as="geometry" />
        </mxCell>
        <mxCell id="MHmUOS_yZu0XGYur4rxJ-46" value="Advance-tier 3 Service D" style="ellipse;whiteSpace=wrap;html=1;fillColor=#fad9d5;strokeColor=#ae4132;" vertex="1" parent="1">
          <mxGeometry x="510" y="350" width="80" height="50" as="geometry" />
        </mxCell>
      </root>
    </mxGraphModel>
  </diagram>
</mxfile>
